<svg width="1820" height="1024" viewBox="0 0 1820 1024" fill="none" xmlns="http://www.w3.org/2000/svg">
<g clip-path="url(#clip0_1_5655)">
<path d="M41.3055 983.957V978.854C41.3055 978.461 41.3251 978.067 41.3645 977.674C41.4235 977.261 41.512 976.887 41.63 976.553C41.3743 976.828 41.0891 977.074 40.7745 977.29C40.4598 977.507 40.1255 977.723 39.7715 977.939L35.4645 980.447L33.3405 976.936L37.6475 974.429C38.0211 974.213 38.3948 974.026 38.7685 973.868C39.1421 973.711 39.5256 973.593 39.919 973.514C39.5256 973.436 39.1421 973.318 38.7685 973.16C38.3948 972.983 38.0211 972.787 37.6475 972.57L33.3405 970.004L35.4645 966.464L39.7715 969.06C40.1255 969.276 40.4598 969.502 40.7745 969.738C41.1088 969.955 41.4038 970.201 41.6595 970.476C41.4235 969.807 41.3055 969.05 41.3055 968.204V963.042H45.6125V968.145C45.6125 968.558 45.583 968.962 45.524 969.355C45.4846 969.748 45.406 970.122 45.288 970.476C45.5436 970.201 45.8288 969.955 46.1435 969.738C46.4581 969.502 46.7925 969.276 47.1465 969.06L51.4535 966.523L53.5775 970.063L49.2705 972.57C48.8771 972.787 48.4936 972.974 48.12 973.131C47.7463 973.288 47.3628 973.406 46.9695 973.485C47.3628 973.564 47.7463 973.691 48.12 973.868C48.5133 974.026 48.8968 974.213 49.2705 974.429L53.5775 976.996L51.4535 980.506L47.1465 977.939C46.7728 977.723 46.4286 977.507 46.114 977.29C45.7993 977.054 45.5043 976.799 45.229 976.523C45.4846 977.212 45.6125 977.969 45.6125 978.795V983.957H41.3055Z" fill="white"/>
<g clip-path="url(#clip1_1_5655)">
<rect width="1986" height="1635" transform="translate(-83 -306)" fill="black"/>
<path d="M512.76 -97.3281C512.76 -77.6414 511.891 -57.8255 514.804 -38.2909C516.628 -26.0598 518.891 -14.5989 518.891 -2.18742C518.891 -0.855128 519.548 17.8426 522.978 10.9824" stroke="#FF4185" stroke-width="22" stroke-linecap="round" stroke-linejoin="round"/>
<path d="M561.807 182.645C579.798 200.283 599.302 216.256 617.211 233.961C623.06 239.745 628.728 247.695 635.376 252.127" stroke="#FF4185" stroke-width="22" stroke-linecap="round" stroke-linejoin="round"/>
<path d="M982.788 456.486C977.97 462.374 969.885 470.324 962.352 472.835" stroke="#FF4185" stroke-width="22" stroke-linecap="round" stroke-linejoin="round"/>
<path d="M888.782 515.75C888.782 549.879 884.907 583.654 884.695 617.703C884.668 621.92 883.546 656.311 886.738 654.715" stroke="#FF4185" stroke-width="22" stroke-linecap="round" stroke-linejoin="round"/>
<path d="M1342.46 810.028C1302.93 810.028 1263.41 810.028 1223.93 810.028" stroke="#FF4185" stroke-width="22" stroke-linecap="round" stroke-linejoin="round"/>
<path d="M1689.87 640.41C1706.44 657.931 1720.46 677.76 1737.9 694.451C1740.86 697.287 1750.34 707.848 1753.22 707.848" stroke="#FF4185" stroke-width="22" stroke-linecap="round" stroke-linejoin="round"/>
<path d="M1777.75 685.369C1782.2 689.965 1808.63 713.524 1812.49 705.805" stroke="#FF4185" stroke-width="22" stroke-linecap="round" stroke-linejoin="round"/>
<path d="M1814.53 466.704C1843.02 466.704 1873.59 463.667 1901.95 466.818C1905.39 467.2 1881.97 484.534 1878.79 486.459C1869.56 492.053 1859.93 496.862 1850.41 501.9C1831.29 512.008 1872.88 508.594 1875.95 508.711C1915.73 510.225 1955.49 511.862 1995.27 513.253C2001.03 513.454 2007.01 512.52 2012.53 514.161C2018.1 515.815 2001.25 516.989 1995.5 517.794C1960.8 522.653 1932.84 530.761 1902.75 547.313C1893.87 552.195 1888.39 556.393 1877.65 558.666C1872.11 559.841 1862.59 559.7 1871.75 562.753" stroke="#FF4185" stroke-width="22" stroke-linecap="round" stroke-linejoin="round"/>
<path d="M1773.66 186.732C1783.79 203.35 1794.98 218.078 1807.26 233.054C1810.39 236.864 1814.32 240.868 1816.12 245.543C1817.92 250.235 1818.66 256.374 1816.57 248.04" stroke="#FF4185" stroke-width="22" stroke-linecap="round" stroke-linejoin="round"/>
<path d="M1718.48 -103.459C1725 -71.5902 1734.83 -42.4404 1734.83 -9.45361" stroke="#FF4185" stroke-width="22" stroke-linecap="round" stroke-linejoin="round"/>
<path d="M492.324 648.584C506.809 663.508 528.347 680.791 534.786 701.717C535.753 704.863 535.188 704.86 537.283 701.717" stroke="#FF4185" stroke-width="22" stroke-linecap="round" stroke-linejoin="round"/>
<path d="M572.024 689.456C585.549 702.594 601.688 712.989 614.94 726.241" stroke="#FF4185" stroke-width="22" stroke-linecap="round" stroke-linejoin="round"/>
<path d="M50.9082 805.941C71.4288 809.789 91.4192 810.028 112.216 810.028" stroke="#FF4185" stroke-width="22" stroke-linecap="round" stroke-linejoin="round"/>
<path d="M1140.14 969.429C1152.3 971.59 1163.48 973.041 1162.62 958.075C1162.13 949.365 1151.22 941.045 1143.21 941.045C1127.1 941.045 1106.73 958.023 1094.5 967.272C1079.64 978.519 1074.25 994.612 1089.74 1007.35C1104.09 1019.16 1133.27 1019.15 1150.36 1015.52C1172.57 1010.81 1198.34 979.306 1191.12 955.918C1180.64 921.992 1152.27 893.789 1116.42 891.091C1094.05 889.407 1060.54 895.052 1046.14 914.252" stroke="#FF4185" stroke-width="22" stroke-linecap="round" stroke-linejoin="round"/>
<path d="M1591.78 403.353C1603.36 411.773 1609.23 405.455 1611.76 391.545C1613.98 379.318 1605.65 378.829 1596.32 378.829C1584.16 378.829 1552.59 372.677 1546.37 385.868C1539.33 400.789 1539.58 429.714 1552.72 441.5C1570.66 457.591 1613.96 469.672 1635.15 454.215C1656.69 438.499 1659.72 404.841 1656.27 380.646C1652.87 356.889 1632.9 329.054 1606.76 326.15C1594.45 324.782 1583.47 328.746 1572.02 332.508C1563.71 335.24 1569.61 327.111 1571.34 323.652" stroke="#FF4185" stroke-width="22" stroke-linecap="round" stroke-linejoin="round"/>
<path d="M1423.78 79.2971C1433.65 72.7205 1448.77 53.5624 1434.35 42.8793C1426.22 36.8574 1411.81 44.9601 1405.8 50.9721C1389.22 67.5477 1427.64 76.6424 1435.47 63.1114C1437.07 60.3523 1437.09 47.1276 1433.9 45.3521C1426.54 41.2651 1411.91 55.1439 1408.72 60.0766C1402.96 68.9785 1405.23 74.0246 1414.9 77.1615C1439.39 85.1045 1444.17 67.042 1450.08 46.9257" stroke="#FF4185" stroke-width="22" stroke-linecap="round" stroke-linejoin="round"/>
<path d="M387.898 407.057C400.292 409.993 437.459 423.881 428.812 398.515C422.62 380.353 408.071 363.635 387.785 362.884C369.272 362.198 342.985 371.099 330.798 385.027C305.349 414.112 341.809 431.883 366.542 439.654C396.008 448.911 436.847 459.385 464.443 439.878C495.436 417.969 488.9 376.973 464.105 352.768C433.777 323.161 391.323 329.165 352.379 327.703C344.574 327.409 326.259 329.773 321.132 322.083" stroke="#FF4185" stroke-width="22" stroke-linecap="round" stroke-linejoin="round"/>
<path d="M1201.23 635.68C1202.94 618.767 1199.52 598.322 1180.88 592.294C1163.94 586.811 1147.16 597.491 1133.9 607.693C1116.02 621.444 1083.31 657.818 1098.04 683.338C1115.02 712.734 1192.56 700.665 1197.97 666.029C1199.9 653.648 1187.12 641.099 1179.65 632.758C1173.38 625.76 1163.97 609.379 1154.69 609.379" stroke="#FF4185" stroke-width="22" stroke-linecap="round" stroke-linejoin="round"/>
<path d="M628.659 477.87C653.078 471.305 679.249 465.837 704.642 465.168C715.765 464.876 688.963 484.381 687.107 485.738C671.246 497.337 654.563 508.192 637.876 518.559C633.552 521.245 621.132 526.503 625.962 528.113C641.761 533.379 666.158 529.452 682.611 530.023C691.031 530.316 703.925 528.831 712.173 532.496C713.666 533.16 697.415 541.236 696.324 541.713C691.108 543.993 661.959 551.287 673.395 558.91C680.626 563.731 700.548 568.715 690.479 577.007C677.237 587.913 709.637 598.661 715.208 601.51C728.009 608.057 720.789 607.972 725.773 615.448" stroke="#FF4185" stroke-width="22" stroke-linecap="round" stroke-linejoin="round"/>
<path d="M1081.86 235.084C1100.2 237.221 1118.52 239.485 1136.93 240.929C1146.33 241.665 1157.48 240.943 1166.5 244.188C1171.15 245.864 1151.96 256.157 1150.65 256.89C1131.2 267.732 1109.56 273.796 1089.61 283.529C1071.12 292.552 1105.06 289.669 1109.28 289.598C1129.67 289.259 1150.05 288.633 1170.43 288.137C1171.38 288.114 1188.71 287.687 1192.91 287.687C1194.19 287.687 1195.88 287.178 1196.73 288.137C1199.35 291.077 1189.34 290.936 1185.49 291.734C1168.54 295.246 1151.74 299.685 1135.14 304.548C1130.84 305.807 1083.95 318.441 1095.91 325.229C1116.91 337.149 1191.17 335.601 1167.17 338.268C1160.04 339.06 1132.75 336.518 1128.84 344.337C1127.67 346.675 1136.26 348.79 1136.26 352.43C1136.26 359.431 1124.98 362.831 1122.77 369.065C1119.05 379.548 1152.41 383.443 1157.17 384.802C1173.93 389.592 1165.01 388.77 1152.9 390.084C1148.87 390.521 1114.35 392.915 1116.37 401.999C1117.17 405.608 1136.87 410.841 1140.53 413.126" stroke="#FF4185" stroke-width="22" stroke-linecap="round" stroke-linejoin="round"/>
<path d="M-81.4872 229.016C-51.624 236.821 -20.251 240.823 9.10762 250.259C18.0357 253.129 7.97622 257.151 3.93719 259.364C-21.2507 273.165 -48.8806 281.197 -75.8672 290.611C-87.7316 294.75 -99.6497 298.863 -111.273 303.65C-112.145 304.008 -118.768 305.512 -114.533 306.01C-93.3018 308.508 -72.0618 307.621 -50.6895 308.37C-45.63 308.548 -37.1771 308.191 -31.9186 309.944C-31.5734 310.059 -46.5783 313.069 -46.7555 313.091C-59.7203 314.75 -72.7365 316.027 -85.7585 317.138C-89.5831 317.464 -104.204 316.387 -108.014 319.61C-108.119 319.7 -89.4776 325.159 -89.1305 325.231C-71.9402 328.747 -53.4069 329.159 -36.7518 334.897C-18.5708 341.161 -75.139 337.665 -94.1885 340.292C-109.096 342.348 -64.7215 346.716 -50.4647 351.532C-30.2821 358.351 -54.333 364.125 -63.6155 367.606C-70.8005 370.3 -104.691 378.889 -83.2856 388.962C-74.998 392.862 -65.8169 395.342 -56.9839 397.616C-56.7722 397.671 -35.982 401.633 -39.899 403.461C-44.0517 405.399 -78.5399 414.377 -75.1928 416.05C-67.3936 419.95 -53.8567 416.558 -47.5423 423.244C-45.9573 424.922 -53.1623 424.982 -53.1623 427.29" stroke="#FF4185" stroke-width="22" stroke-linecap="round" stroke-linejoin="round"/>
<path d="M224.017 32.7637C206.235 38.2676 188.244 43.4907 181.53 62.887C173.877 84.9959 189.184 96.6686 210.754 93.1228C223.215 91.0744 248.082 80.4453 240.203 63.5614C235.406 53.2831 213.731 50.9129 204.235 53.4454C198.201 55.0544 192.603 61.7961 196.816 67.1582C204.404 76.8152 223.213 67.4313 230.312 61.5382C231.223 60.7817 236.442 55.1661 232.335 54.3446C225.204 52.9185 216.318 62.8506 212.215 67.1582C209.332 70.1851 200.215 87.4292 207.832 77.2743" stroke="#FF4185" stroke-width="22" stroke-linecap="round" stroke-linejoin="round"/>
<path d="M-111.835 979.626C-97.2511 981.913 -77.4996 984.215 -72.2704 965.913C-69.401 955.87 -70.7778 940.187 -78.34 932.193C-108.917 899.868 -175.705 949.466 -169.609 987.943C-164.586 1019.65 -119.754 1042.45 -90.0297 1039.87C-63.4399 1037.57 -43.6434 1008.89 -30.4574 988.843C-20.005 972.955 -6.14596 950.056 -5.50447 930.169C-5.14644 919.071 -11.1428 911.431 -18.3181 903.643C-35.9314 884.526 -58.8503 868.776 -79.6888 853.512C-85.4801 849.27 -102.413 833.144 -108.239 845.419C-112.289 853.955 -112.616 857.914 -109.812 866.326" stroke="#FF4185" stroke-width="22" stroke-linecap="round" stroke-linejoin="round"/>
<path d="M1847.78 751.305C1867.22 776.733 1887.44 801.626 1908.92 825.371C1928.83 847.386 1949.02 871.261 1972.03 890.125C1980.64 897.189 1991.89 899.765 1976.63 904.478C1942.32 915.073 1906.5 920.833 1871.66 929.459C1858.75 932.657 1845.91 936.164 1832.99 939.32C1828.57 940.4 1815.2 942.122 1819.73 942.607C1842.94 945.094 1867.51 942.346 1890.84 942.716C1896.02 942.799 1936.02 946.393 1935.21 946.989C1929.63 951.102 1920.5 952.738 1914.18 954.44C1897.55 958.916 1880.74 962.703 1864.1 967.149C1852.45 970.265 1839.59 972.586 1829.59 979.859C1825.86 982.571 1847.82 990.713 1848.88 991.035C1851.78 991.922 1877.16 997.07 1874.08 1002.65C1868.22 1013.24 1852.62 1015.39 1844.93 1024.12C1839.45 1030.35 1867.16 1033.47 1870.79 1034.09C1881.41 1035.93 1885.3 1035.29 1875.39 1042.09C1863.84 1050.02 1871.52 1058.02 1881.31 1062.91" stroke="#FF3C3C" stroke-width="22" stroke-linecap="round" stroke-linejoin="round"/>
<path d="M1607.17 642.835C1564.37 647.186 1520.86 650.338 1478.76 659.708C1468.79 661.928 1457.8 664.994 1449.62 671.541C1442.38 677.334 1491.5 675.565 1494.87 675.486C1532.95 674.586 1571.49 675.413 1609.58 676.472C1611.69 676.53 1617.88 676.979 1615.83 677.458C1612.81 678.163 1598.67 679.348 1597.86 679.43C1581.06 681.126 1565.21 684.256 1549.1 689.291C1526.51 696.352 1568.15 696.067 1572.33 696.084C1586.39 696.142 1602.23 694.035 1616.16 696.522C1627.76 698.593 1593.13 701.756 1581.43 703.096C1560.21 705.525 1538.61 707.394 1517.88 712.738C1513.51 713.864 1502.74 719.446 1507.03 720.846C1526.03 727.04 1548.83 726.692 1568.5 727.31C1591.47 728.032 1617.34 723.99 1640.04 728.077C1654.97 730.764 1607.49 730.2 1596.22 740.348C1587.37 748.312 1652.11 758.27 1658.56 759.084C1661.3 759.431 1680.91 759.345 1667.98 763.576C1652.21 768.739 1636.4 773.55 1620.32 777.71C1608.08 780.878 1592.84 782.432 1581.54 788.667C1573.26 793.232 1601.7 796.084 1602.79 796.227C1613.46 797.616 1624.12 797.645 1634.78 798.637C1639.73 799.097 1625.46 802.078 1620.76 803.677C1594.66 812.55 1624.32 820.464 1637.96 823.07C1656.47 826.605 1675.24 828.113 1693.95 830.083C1696.13 830.312 1689.65 830.551 1691.98 828.22" stroke="#FF3C3C" stroke-width="22" stroke-linecap="round" stroke-linejoin="round"/>
<path d="M686.166 883.441C658.699 885.272 630.646 885.949 603.334 889.796C590.365 891.622 601.799 895.377 608.155 897.246C642.103 907.231 676.332 916.475 710.708 924.857C725.647 928.499 740.994 931.446 755.63 936.252C757.452 936.85 761.2 940.111 759.355 940.634C746.762 944.208 731.298 944.432 718.597 945.565C691.166 948.011 663.703 949.515 636.204 950.933C611.563 952.204 586.824 953.025 562.247 955.316C558.365 955.678 548.414 955.433 550.962 958.384C560.138 969.01 586.678 972.012 599.171 975.476C601.427 976.102 631.061 984.209 626.124 985.556C622.292 986.601 613.296 987.373 621.96 991.253C644.485 1001.34 670.261 1003.1 694.273 1007.25C697.219 1007.76 725.35 1009.46 710.489 1014.04C700.077 1017.26 688.33 1017.03 678.277 1021.06C674.711 1022.48 647.63 1032.07 648.475 1033.76C651.407 1039.63 664.992 1042.57 670.388 1044.06C673.953 1045.05 697.604 1048.71 688.138 1051.08" stroke="#FF3C3C" stroke-width="22" stroke-linecap="round" stroke-linejoin="round"/>
<path d="M841.968 733.555C836.265 753.514 825.08 774.919 822.355 795.35C821.464 802.037 841.242 788.155 841.31 788.119C874.981 770.66 908.641 753.175 942.878 736.842C948.344 734.234 954.473 726.672 959.641 729.83C964.373 732.722 952.914 738.709 948.904 742.54C925.407 764.98 897.112 785.028 877.686 811.347C870.55 821.015 905.299 797.884 907.488 796.556C925.607 785.555 945.934 772.666 966.872 767.74C975.056 765.814 962.398 780.293 962.271 780.449C951.731 793.384 934.787 804.974 926.552 819.455C923.817 824.266 956.658 813.957 959.641 812.662C976.029 805.545 1018.9 773.469 1006.1 785.928C998.593 793.229 964.097 832.696 991.196 832.164C1005.87 831.877 1022.07 829.33 1035.9 824.276C1041.31 822.297 1035.27 822.304 1033.27 822.304" stroke="#FF3C3C" stroke-width="22" stroke-linecap="round" stroke-linejoin="round"/>
<path d="M408.089 646.779C370.841 655.013 333.41 662.023 296.003 669.459C279.94 672.653 263.389 675.308 247.685 680.087C237.109 683.306 252.627 682.357 253.82 682.388C267.542 682.749 398.008 687.432 398.008 699.042C398.008 702.692 380.471 705.278 379.163 705.506C344.702 711.537 306.597 710.811 273.98 724.79C267.122 727.729 274.568 729.528 277.925 730.487C295.907 735.625 314.55 736.561 333.146 737.061C360.813 737.805 388.521 737.5 416.196 737.5C419.457 737.5 435.38 735.242 438.767 737.5C441.214 739.131 433.048 738.883 430.221 739.691C418.378 743.075 406.617 745.924 394.502 748.237C389.1 749.268 372.964 749.615 368.316 754.263C363.882 758.698 380.021 758.974 386.175 760.18C403.059 763.487 419.961 765.033 437.123 765.987C437.29 765.996 464.786 766.492 460.68 768.616C454.484 771.821 422.286 780.688 432.412 792.501C440.018 801.376 476.325 798.544 465.72 803.458C452.723 809.481 433.05 807.286 421.675 816.387C419.209 818.359 447.931 823.548 450.819 823.837C460.72 824.827 468.077 826.577 477.115 830.192" stroke="#FF3C3C" stroke-width="22" stroke-linecap="round" stroke-linejoin="round"/>
<path d="M895.217 -59.2617C895.217 -34.4297 895.048 -9.58389 895.655 15.2429C895.963 27.8147 895.69 64.5145 900.038 52.7143C903.605 43.0313 902.241 28.8525 903.434 18.8585C906.192 -4.23922 910.806 -27.463 918.007 -49.6199C920.577 -57.5281 923.279 -61.0982 925.238 -51.1539C930.892 -22.449 928.505 8.08617 928.854 37.156C929.083 56.308 930.089 75.4256 930.607 94.5683C931.053 111.087 936.023 94.7674 939.481 87.7753C949.998 66.5117 959.615 44.8867 969.064 23.1316C972.053 16.25 976.262 6.38221 979.582 -0.753708C981.205 -4.24082 984.457 -14.4554 985.389 -10.7242C986.806 -5.05665 980.19 9.95995 979.035 15.1333C975.492 30.9996 971.793 46.9814 969.064 63.0135C967.658 71.2724 971.933 63.8113 974.323 61.2604C992.143 42.2396 1011.68 24.8196 1029.87 6.14893C1041.98 -6.27716 1053.68 -19.2428 1066.36 -31.1034C1070.6 -35.0737 1059.67 -9.50661 1058.69 -6.67025C1055.85 1.55378 1032.05 90.4978 1038.75 91.3909C1043.3 91.9978 1053.19 77.6088 1055.18 75.0657C1064.97 62.565 1072.42 48.8563 1078.63 34.3073C1080.99 28.7905 1082.36 26.6649 1079.29 34.5264C1075.04 45.4012 1069.3 55.6276 1065.15 66.5195C1064.3 68.7626 1061.11 75.6878 1066.36 72.3265C1077.04 65.4871 1086.45 56.0218 1095.72 47.4551C1099.83 43.6583 1107.99 30.9229 1108.43 36.4986C1109.04 44.0757 1100.98 56.9095 1098.46 63.7804C1097.5 66.4046 1091.17 78.5606 1092.87 81.9683C1093.23 82.6883 1107.4 68.8817 1107.99 68.2726C1115.34 60.7125 1121.97 52.7109 1127.5 43.7299C1133.14 34.5507 1131.32 42.0958 1129.8 48.3317C1128.27 54.5668 1121.43 68.7829 1129.91 70.9022" stroke="#FF3C3C" stroke-width="22" stroke-linecap="round" stroke-linejoin="round"/>
<path d="M1620.98 137.957C1602.11 116.77 1581.3 97.1827 1560.5 77.9152C1554.86 72.6916 1528.67 41.1424 1531.68 66.9586C1535.85 102.637 1556.04 133.919 1565.98 167.978C1572.5 190.326 1554.2 164.623 1549.76 159.322C1542.44 150.588 1535.45 141.699 1528.62 132.588C1523.19 125.351 1522.81 126.553 1521.49 134.67C1517.5 159.275 1518.43 182.631 1518.43 207.312C1518.43 213.563 1504.84 194.823 1503.31 192.959C1501.57 190.852 1494.11 178.177 1489.94 181.126C1482.5 186.39 1477.13 200.459 1473.18 208.079C1471.4 211.503 1458.47 241.688 1457.29 240.51" stroke="#FF3C3C" stroke-width="22" stroke-linecap="round" stroke-linejoin="round"/>
<path d="M423.866 135.985C420.477 130.807 374.914 66.6274 369.083 69.8077C363.364 72.9271 363.355 100.224 363.167 104.869C362.666 117.22 363.022 129.569 363.715 141.902C364.064 148.124 367.144 160.986 364.372 166.992C362.614 170.801 358.802 160.715 356.155 157.46C347.363 146.652 337.979 136.335 328.873 125.796C322.033 117.88 315.317 109.949 309.041 101.582C308.511 100.874 302.051 90.0976 301.591 96.5417C300.286 114.81 302.201 133.834 304.001 151.982C306.195 174.086 306.614 200.339 314.191 221.556C316.38 227.686 313.119 208.555 311.89 202.163C310.143 193.077 306.156 171.016 296.77 165.897C290.094 162.255 278.078 227.913 277.925 232.622C277.213 254.458 271.801 201.774 262.257 206.546C255.518 209.915 257.967 226.47 262.147 230.65" stroke="#FF3C3C" stroke-width="22" stroke-linecap="round" stroke-linejoin="round"/>
<path d="M644.75 719.75C670.568 739.296 705.85 759.214 723.637 787.242C725.494 790.169 729.317 800.609 731.526 800.609" stroke="#FF3C3C" stroke-width="22" stroke-linecap="round" stroke-linejoin="round"/>
<path d="M64.9287 384.48C69.029 367.325 72.8684 350.082 77.2001 332.984C77.3479 332.4 78.4827 323.476 81.1444 327.944C87.8089 339.131 92.7628 351.749 98.4558 363.443C105.686 378.294 113.819 393.943 123.656 407.269C127.307 412.216 127.519 393.8 127.819 392.368C131.059 376.933 134.724 360.765 139.433 345.693C141.89 337.833 139.734 362.404 142.282 370.236C143.574 374.209 148.757 385.384 154.115 385.575C159.286 385.76 164.72 372.842 166.606 369.579C171.501 361.106 174.513 351.792 178.877 343.064C179.244 342.329 182.084 352.664 182.602 354.02C184.532 359.076 190.204 381.461 198.599 380.316C204.548 379.505 211.581 365.883 214.376 361.69C220.227 352.914 222.613 337.238 229.715 330.135C232.241 327.609 227.518 336.945 226.757 340.434C225.54 346.01 224.579 351.609 225.552 357.307C228.335 373.608 233.279 367.484 244.397 360.813" stroke="#FF3C3C" stroke-width="22" stroke-linecap="round" stroke-linejoin="round"/>
<circle cx="1287.44" cy="584.446" r="33" fill="#FF3C3C"/>
<circle cx="81.4365" cy="591.446" r="31" fill="#FF3C3C"/>
<circle cx="824.437" cy="593.446" r="31" fill="#FF3C3C"/>
<path d="M1666.37 15.0527C1669.87 30.0278 1675.35 44.4822 1678.89 59.4671C1680.27 65.3045 1681.63 71.0743 1683.35 76.8256C1683.82 78.4155 1685 83.178 1685 81.519" stroke="#27E123" stroke-width="22" stroke-linecap="round" stroke-linejoin="round"/>
<path d="M1798.06 86.4884C1798.98 75.8992 1799.94 65.3145 1802.4 54.9463C1804.4 46.5588 1807.68 38.6228 1810.89 30.6512C1812.87 25.7542 1815.58 20.3118 1814.83 15.0527" stroke="#27E123" stroke-width="22" stroke-linecap="round" stroke-linejoin="round"/>
<path d="M897.854 208.301C927.915 210.674 958.34 212.723 988.508 212.723" stroke="#27E123" stroke-width="22" stroke-linecap="round" stroke-linejoin="round"/>
<path d="M1059.26 158.551C1073.64 157.762 1087.99 156.854 1102.38 156.34" stroke="#27E123" stroke-width="22" stroke-linecap="round" stroke-linejoin="round"/>
<path d="M1270.42 -21.6523C1277.73 0.0495625 1291.35 18.7624 1299.16 40.2579" stroke="#27E123" stroke-width="22" stroke-linecap="round" stroke-linejoin="round"/>
<path d="M602.163 20.7168C594.842 38.4965 591.515 57.0678 587.051 75.6671C586.752 76.9153 585.678 88.7819 585.678 83.9096" stroke="#27E123" stroke-width="22" stroke-linecap="round" stroke-linejoin="round"/>
<path d="M448.302 13.8477C449.626 33.2675 455.004 52.2111 459.215 71.1638C459.353 71.7845 460.666 82.5663 460.666 78.4142" stroke="#27E123" stroke-width="22" stroke-linecap="round" stroke-linejoin="round"/>
<path d="M640.628 89.4045C663.683 68.2104 686.839 45.0826 714.2 29.2644C716.597 27.8786 717.03 25.7892 718.932 24.8379" stroke="#27E123" stroke-width="22" stroke-linecap="round" stroke-linejoin="round"/>
<path d="M790.367 -39.7285C786.164 -12.6422 785.973 14.8601 781.819 41.9337C781.432 44.4603 776.499 68.7983 776.629 68.7983" stroke="#27E123" stroke-width="22" stroke-linecap="round" stroke-linejoin="round"/>
<path d="M1795.96 586.705C1809.27 596.782 1824.41 606.477 1835.57 619.064C1837.72 621.494 1838.54 623.451 1838.54 626.544" stroke="#27E123" stroke-width="22" stroke-linecap="round" stroke-linejoin="round"/>
<path d="M1449.77 608.685C1449.77 604.385 1447.03 584.29 1452.37 582.202C1461.76 578.526 1478.84 586.987 1487.17 590.063C1487.73 590.271 1506.2 597.57 1505.79 595.939C1503.61 587.207 1493.21 577.712 1487.93 570.83C1479.68 560.075 1470.01 550.178 1462.44 538.929C1458.87 533.628 1465.35 540.412 1466.56 541.371C1477.28 549.893 1487.16 558.563 1500.29 563.198C1515.22 568.466 1506.38 540.289 1505.41 533.357C1504.97 530.25 1500.88 520.46 1506.4 525.191C1515.74 533.199 1529.33 535.991 1541.28 537.555C1546.89 538.289 1556.35 539.252 1561.81 536.944C1562.71 536.565 1562.21 535.174 1563.11 534.578C1565.8 532.785 1570.25 533.184 1573.26 533.128C1575.81 533.081 1585.38 534.871 1585.77 530.839C1586.01 528.394 1584.89 526.013 1587.15 524.886" stroke="#27E123" stroke-width="22" stroke-linecap="round" stroke-linejoin="round"/>
<path d="M1365.22 243.238C1357.55 207.807 1350.67 171.398 1336.14 137.97C1334.15 133.391 1332.72 126.664 1329.49 133.567C1313.03 168.805 1317.05 213.3 1317.36 251.214C1317.37 252.599 1317.41 256.752 1317.36 255.368C1317.06 246.951 1316.77 238.788 1315.78 230.36C1312.36 201.217 1306.45 171.89 1297.09 144.035C1293.82 134.308 1291.72 142.47 1289.45 149.103C1284.21 164.358 1282.43 180.07 1278.56 195.548C1276.26 204.765 1277.81 176.515 1276.32 167.133C1276.06 165.501 1272.84 141.497 1270.09 141.709C1266.3 142 1260.27 160.709 1259.2 163.145C1255.61 171.325 1251.94 187.433 1244.33 193.138C1242.9 194.214 1239.9 170.895 1239.76 170.124C1237.22 155.878 1235.54 140.121 1230.62 126.421C1227.92 118.893 1224.78 129.721 1229.13 134.065" stroke="#27E123" stroke-width="22" stroke-linecap="round" stroke-linejoin="round"/>
<path d="M1742.09 259.689C1719.46 259.385 1697.01 259.117 1674.46 261.35C1666.77 262.112 1646.06 262.256 1652.03 267.166C1657.83 271.948 1670.59 273.315 1677.12 274.976C1699.88 280.769 1722.72 285.538 1745.91 289.267C1754.47 290.644 1779.52 292.561 1771.25 295.166C1755.34 300.175 1738.18 302.365 1721.82 305.302C1706.65 308.025 1686.66 308.672 1672.63 315.688C1666.74 318.635 1682.06 323.99 1682.6 324.162C1694.58 327.985 1707.1 330.278 1719.32 333.135C1725.27 334.524 1737.92 335.572 1743.09 340.114C1744.04 340.951 1713.39 352.632 1714.17 359.556C1715.56 371.804 1730.06 378.098 1739.43 382.321C1757.17 390.315 1775.7 397.096 1794.27 402.926C1801.61 405.232 1794.69 403.639 1797.42 407.745" stroke="#27E123" stroke-width="22" stroke-linecap="round" stroke-linejoin="round"/>
<path d="M1037.7 670.956C1021.01 653.643 1004.61 640.972 982.367 632.073" stroke="#27E123" stroke-width="22" stroke-linecap="round" stroke-linejoin="round"/>
<path d="M1294.93 985.015C1310.08 960.428 1326.93 935.975 1339.8 910.239" stroke="#27E123" stroke-width="22" stroke-linecap="round" stroke-linejoin="round"/>
<path d="M1442.99 1031.38C1452.47 1040.74 1461.68 1050.31 1473.23 1057.13C1478.41 1060.19 1483.24 1063.42 1487.85 1067.27" stroke="#27E123" stroke-width="22" stroke-linecap="round" stroke-linejoin="round"/>
<path d="M236.104 1029.88C254.858 1043.06 276.737 1054.06 292.933 1070.26" stroke="#27E123" stroke-width="22" stroke-linecap="round" stroke-linejoin="round"/>
<path d="M94.0293 983.519C105.815 967.678 119.635 953.801 131.75 938.322C133.608 935.947 136.121 933.733 137.399 931.176" stroke="#27E123" stroke-width="22" stroke-linecap="round" stroke-linejoin="round"/>
<path d="M35.7039 759.192C6.81827 762.753 -22.1133 765.066 -51.0361 768.165" stroke="#27E123" stroke-width="22" stroke-linecap="round" stroke-linejoin="round"/>
<path d="M589.046 584.216C607.21 602.616 623.91 623.333 647.371 635.064" stroke="#27E123" stroke-width="22" stroke-linecap="round" stroke-linejoin="round"/>
<path d="M165.814 240.247C155.64 212.956 149.057 185.144 143.132 156.664C142.912 155.608 141.067 137.487 138.562 135.893C136.096 134.324 128.64 189.46 128.094 193.222C128.065 193.422 124.206 207.953 123.856 207.429C118.697 199.689 118.528 185.515 116.462 176.771C112.995 162.098 108.048 147.598 101.922 133.816C96.6539 121.963 90.4546 144.633 88.878 148.522C84.2865 159.848 81.5068 170.359 80.2372 182.421C79.5513 188.937 79.2439 188.622 78.9909 182.171C78.4445 168.236 74.8999 154.133 70.7656 140.878C67.9316 131.793 63.5411 120.731 57.0567 134.564C50.0445 149.523 45.7617 165.808 41.6861 181.756C39.7246 189.431 38.7423 176.505 38.3627 174.86C35.3299 161.718 32.1516 148.265 24.9031 136.724C24.0018 135.289 17.7578 125.551 17.7578 126.588" stroke="#27E123" stroke-width="22" stroke-linecap="round" stroke-linejoin="round"/>
<path d="M53.6504 -25.9551C63.1045 -12.5325 73.1283 0.406602 82.8961 13.593C84.9236 16.3303 86.9973 18.7514 88.0473 21.9015" stroke="#27E123" stroke-width="22" stroke-linecap="round" stroke-linejoin="round"/>
<path d="M838.797 875.842C883.929 890.955 929.107 905.641 974.972 918.381C979.507 919.641 992.789 922.402 988.182 923.367C961.55 928.941 933.422 930.169 906.427 932.755C889.718 934.356 870.066 933.624 853.918 938.654C849.868 939.915 870.345 945.497 871.532 945.799C887.369 949.826 903.538 952.305 919.389 956.268C920.441 956.531 931.023 957.878 925.703 960.422C919.71 963.289 912.646 964.232 906.261 965.906C902.062 967.006 893.135 968.744 901.775 971.472C904.743 972.41 913.933 972.628 910.914 973.383C902.279 975.542 892.541 975.403 884.327 979.033C881.234 980.4 883.685 984.992 880.671 988.006C878.076 990.602 872.239 994.123 877.68 995.484" stroke="#27E123" stroke-width="22" stroke-linecap="round" stroke-linejoin="round"/>
<path d="M1481.87 836.958C1462.89 841.103 1443.8 844.69 1425.04 849.753C1408.75 854.148 1425.68 855.534 1433.43 858.727C1440.01 861.437 1446.61 864.107 1453.21 866.786C1455.47 867.707 1464.61 869.911 1465.92 872.851C1466.97 875.218 1433.77 893.826 1430.44 896.031C1429.28 896.8 1409.02 909.95 1410.42 912.399C1411.89 914.97 1441.32 908.877 1443.32 908.743C1461.67 907.511 1480.1 906.56 1498.49 906.085C1505.99 905.891 1518.53 905.752 1526.24 905.752C1529.71 905.752 1539.62 904.833 1536.62 906.583C1523.21 914.404 1502.5 916.303 1487.52 918.88C1477.97 920.521 1446.97 925.211 1471.57 932.173C1480.71 934.762 1489.95 936.955 1499.15 939.318C1499.59 939.431 1515.21 943.981 1513.28 945.799C1504.16 954.344 1483.64 957.129 1477.88 969.229C1475.46 974.312 1539.76 982.211 1543.68 982.771C1557.41 984.732 1571.77 985.946 1585.23 989.501C1594.79 992.027 1587.73 993.858 1582.07 995.151C1575.73 996.598 1538.81 1000.23 1539.78 1010.94C1539.97 1013.05 1554.71 1014.28 1556.65 1014.93" stroke="#27E123" stroke-width="22" stroke-linecap="round" stroke-linejoin="round"/>
<path d="M1544.68 853.409C1563.77 848.903 1583.34 846.799 1602.67 843.605C1608.85 842.586 1605.67 842.096 1604.5 844.436" stroke="#27E123" stroke-width="22" stroke-linecap="round" stroke-linejoin="round"/>
<path d="M295.924 832.472C273.692 840.253 251.471 844.395 228.293 848.258C219.442 849.733 210.494 850.91 201.706 852.745C195.622 854.015 202.669 855.468 204.697 856.068C228.215 863.027 252.529 866.698 275.818 874.513C282.064 876.609 288.647 876.564 281.135 880.661C266.157 888.831 249.841 892.885 233.694 898.109C226.44 900.456 212.381 904.333 228.044 905.919C258.76 909.029 289.321 913.677 319.852 918.215C322.397 918.593 329.536 918.802 327.33 920.126C321.685 923.513 313.665 924.301 307.39 925.859C299.219 927.887 276.565 928.856 270.833 935.663C267.938 939.1 281.725 942.409 282.797 942.808C286.067 944.027 305.593 946.721 298.25 952.446C294.513 955.36 256.557 969.996 258.785 972.968C262.232 977.563 274.716 978.639 279.556 979.698C287.704 981.48 296.024 982.439 304.149 984.267C312.047 986.044 298.506 989.685 296.256 990.997C290.346 994.445 326.599 1005.51 329.822 1006.53C334.467 1008.01 347.82 1009.1 349.763 1014.93" stroke="#27E123" stroke-width="22" stroke-linecap="round" stroke-linejoin="round"/>
<path d="M330.321 857.896C348.339 857.896 368.379 859.168 385.655 853.409" stroke="#27E123" stroke-width="22" stroke-linecap="round" stroke-linejoin="round"/>
<path d="M390.142 545.332C370.47 538.246 351.83 530.351 334.559 518.413C332.884 517.256 325.731 509.958 325.835 516.087C326.199 537.549 339.603 551.265 353.585 565.605C356.779 568.881 350.636 565.568 349.68 565.19C337.643 560.431 326.102 554.932 314.868 548.49C303.66 542.062 292.782 534.441 280.886 529.297C274.922 526.718 279.739 533.472 280.969 536.027C282.689 539.598 302.779 566.591 300.245 567.765C293.671 570.811 282.891 566.759 276.649 565.273C261.97 561.778 247.866 556.669 233.445 552.312C214.354 546.543 243.944 569.314 248.234 572.086C249.612 572.976 267.479 584.216 260.032 584.216" stroke="#27E123" stroke-width="22" stroke-linecap="round" stroke-linejoin="round"/>
<path d="M1028.73 337.456C1019.12 323.657 1008.58 311.135 996.989 298.905C991.587 293.206 970.913 266.668 960.183 266.668C957.341 266.668 960.857 272.418 962.094 274.976C968.055 287.304 976.466 298.593 984.361 309.706C1000.93 333.033 1015.95 355.82 1026.24 382.654C1026.24 382.663 1032.15 399.587 1030.97 398.606C1024.55 393.255 1018.66 386.915 1012.61 381.158C997.39 366.691 982.455 352.679 964.753 341.278C957.161 336.388 956.943 337.486 956.943 345.764C956.943 357.473 957.43 369.291 956.943 380.992C956.787 384.742 953.451 376.58 953.287 376.339C946.501 366.372 936.601 358.064 927.697 350.085C925.035 347.699 897.655 327.649 899.199 333.052C904.662 352.173 923.728 365.037 931.187 383.152C932.143 385.475 910.088 376.087 909.003 375.675C903.338 373.524 869.699 359.36 865.052 366.12C859.65 373.977 868.258 391.262 870.867 398.938C873.135 405.606 879.285 417.011 874.606 424.03C872.43 427.294 869.496 429.668 869.372 434C869.299 436.551 871.372 437.819 868.707 439.151" stroke="#27E123" stroke-width="22" stroke-linecap="round" stroke-linejoin="round"/>
<path d="M531.046 252.688C505.858 254.977 480.464 254.984 455.318 257.699C443.665 258.957 456.565 260.785 460.793 261.69C479.342 265.658 498.525 265.548 517.125 269.207C519.791 269.731 509.205 274.217 508.68 274.404C497.016 278.553 483.608 280.696 473.136 287.582C466.968 291.637 489.117 292.698 490.398 292.779C499.11 293.331 507.891 293.422 516.568 294.449C518.849 294.72 522.763 294.815 519.167 297.234C512.743 301.555 505.571 304.751 498.75 308.37C497.651 308.953 489.964 311.774 493.46 313.938C511.288 324.974 534.593 327.706 554.061 334.866C556.501 335.763 577.602 342.119 572.854 347.998C567.556 354.558 557.889 355.082 550.396 356.721C548.279 357.184 532.39 361.17 540.094 366.141C542.443 367.656 563.432 371.187 563.295 371.802C562.496 375.401 546.266 378.689 542.925 380.061C539.304 381.549 534.905 383.584 536.985 388.043C539.108 392.591 542.262 397.343 546.08 400.525" stroke="#27E123" stroke-width="22" stroke-linecap="round" stroke-linejoin="round"/>
<circle cx="517.937" cy="516.946" r="32.5" fill="#27E123"/>
<circle cx="1058.44" cy="519.446" r="29" fill="#27E123"/>
<circle cx="754.437" cy="736.446" r="29" fill="#27E123"/>
<ellipse cx="1099.44" cy="797.946" rx="26" ry="23.5" fill="#27E123"/>
<circle cx="1382.44" cy="511.446" r="27" fill="#27E123"/>
<circle cx="1731.44" cy="508.446" r="22" fill="#27E123"/>
<circle cx="174.937" cy="508.946" r="24.5" fill="#27E123"/>
<circle cx="679.937" cy="147.946" r="24.5" fill="#27E123"/>
<path d="M872.31 166.168C855.733 187.513 841.217 210.38 824.431 231.531C821.273 235.509 818.203 238.916 816.63 243.635" stroke="#D8E123" stroke-width="22" stroke-linecap="round" stroke-linejoin="round"/>
<path d="M1281.43 500.243C1277.46 495.537 1248.57 456.507 1245.12 473.748C1243.79 480.406 1245.18 502.243 1245.12 500.781C1244.48 486.059 1225.78 511.985 1223.6 514.364C1211.14 527.956 1216.42 501.106 1211.23 492.442C1205.08 482.203 1199.18 511.143 1193.07 510.464C1184.32 509.492 1185.06 471.841 1171.96 491.635C1164.47 502.94 1157.26 514.939 1147.61 524.586C1138.79 533.406 1135.2 521.227 1132.68 513.692C1127.15 497.077 1129.55 499.017 1116.81 507.505" stroke="#D8E123" stroke-width="22" stroke-linecap="round" stroke-linejoin="round"/>
<path d="M1479.94 437.301C1466.09 439.794 1454.18 445.08 1441.21 449.405" stroke="#D8E123" stroke-width="22" stroke-linecap="round" stroke-linejoin="round"/>
<path d="M1747.92 973.834C1743.7 978.716 1704.38 1020.46 1699.62 1007.14C1695.92 996.784 1694.06 985.483 1692.05 974.716C1689.72 962.211 1687.14 949.691 1686.02 937.003C1686 936.725 1685.98 930.856 1685.58 931.489C1683.33 935.023 1679.91 938.31 1677.05 941.34C1676 942.462 1669.31 950.785 1666.98 949.354C1664.12 947.601 1664.83 937.337 1664.41 934.651C1663.78 930.623 1657.91 912.823 1650.88 919.36C1648.82 921.277 1632.56 939.293 1629.64 932.151C1628.64 929.728 1631 906.314 1626.11 908.92C1614.94 914.863 1602.83 916.353 1590.45 918.257" stroke="#D8E123" stroke-width="22" stroke-linecap="round" stroke-linejoin="round"/>
<path d="M1469.26 786.932C1454.72 787.091 1440.26 787.09 1425.74 786.01C1415.03 785.212 1403.75 784.337 1393.45 780.97C1390.89 780.135 1387.82 778.724 1386.17 776.462C1383.93 773.386 1389.72 771.827 1391.53 771.103C1410.26 763.583 1430.67 761.114 1449.88 755.096C1455.76 753.253 1461.65 751.028 1467.13 748.175C1471.28 746.013 1468.87 745.718 1465.57 745.264C1448.43 742.917 1431.29 740.48 1414.24 737.527C1401.77 735.365 1387.32 732.712 1376.55 725.531C1374.75 724.329 1372.79 723.172 1371.09 721.839C1369.08 720.278 1376.96 720.142 1377.05 720.136C1389.22 719.3 1401.82 721.29 1413.89 719.781C1414.8 719.668 1412.55 718.446 1411.69 718.148C1407.22 716.606 1402.62 715.493 1397.95 714.741C1377.62 711.462 1357.06 709.884 1337.23 703.951C1334.11 703.019 1333.67 702.386 1336.52 700.899C1341.23 698.434 1346.52 697.012 1351.56 695.433C1361.11 692.446 1370.74 689.693 1380.1 686.17C1385.82 684.018 1392.65 681.582 1397.63 677.9C1401.67 674.915 1391.61 671.444 1390.43 670.943C1380.29 666.66 1369.68 663.895 1358.88 661.857C1355.59 661.238 1353.09 661.52 1352.03 658.095C1350.79 654.106 1351.5 651.027 1352.35 647.021" stroke="#D8E123" stroke-width="22" stroke-linecap="round" stroke-linejoin="round"/>
<path d="M528.266 977.408C519.747 986.138 508.716 993.344 498.211 999.477C494.769 1001.49 493.695 1001.18 493.849 996.823C494.033 991.638 494.667 986.476 494.953 981.297C495.671 968.301 495.275 955.253 494.795 942.256C494.436 932.539 493.385 923.093 491.853 913.514C491.653 912.264 486.946 919.86 486.651 920.292C481.283 928.148 475.692 935.786 470.52 943.78C468.829 946.392 466.033 951.314 467.997 944.831C469.063 941.315 470.537 937.939 471.36 934.348C472.63 928.813 472.884 922.986 472.884 917.324C472.884 912.187 468.836 916.379 466.658 918.191C456.636 926.526 446.782 934.349 435.315 940.68C434.232 941.277 423.833 947.176 423.597 943.175C423.151 935.582 425.053 927.81 425.174 920.187C425.192 919.008 425.368 917.562 425.069 916.404C424.614 914.643 419.674 918.414 419.289 918.637C416.137 920.466 412.974 922.317 409.621 923.76C407.409 924.712 403.377 926.771 400.793 926.125C396.824 925.133 405.498 900.559 406.731 897.015" stroke="#D8E123" stroke-width="22" stroke-linecap="round" stroke-linejoin="round"/>
<path d="M29.5645 1032.55C54.1867 1034.33 78.8215 1035.78 103.461 1037.31C120.37 1038.35 137.3 1039 154.207 1040.06C160.145 1040.43 166.368 1040.75 172.201 1042.09C175.348 1042.81 172.956 1045.2 171.241 1046.05C156.264 1053.46 139.563 1057.44 124.022 1063.48C111.065 1068.52 97.6273 1073.8 85.6755 1081C85.543 1081.08 80.8079 1083.62 83.4002 1083.92C88.126 1084.45 93.4389 1083.69 98.1585 1083.69C108.53 1083.69 118.812 1084.21 129.137 1085.19C135.701 1085.82 143.129 1085.95 149.406 1088.3C151.323 1089.02 151.925 1089.65 150.032 1090.89C144.502 1094.52 136.323 1095.08 130.076 1096.19C122.529 1097.53 114.894 1098.54 107.427 1100.31C104.363 1101.03 96.2827 1102.07 94.3176 1105.23C91.546 1109.69 119.423 1116.07 121.872 1116.71C124.687 1117.45 142.805 1119.8 135.148 1125.65C133.178 1127.15 115.011 1136.17 116.653 1138.96C118.338 1141.84 125.495 1143.43 128.135 1144.31C138.677 1147.83 149.518 1150.46 160.281 1153.2C162.03 1153.65 169.533 1154.45 171.22 1156.37C171.567 1156.77 170.459 1157.15 169.967 1157.33C168.565 1157.87 165.407 1158.81 164.164 1159.17C158.238 1160.92 152.274 1162.55 146.546 1164.89C145.11 1165.48 142.831 1166.18 142.371 1167.94C142.257 1168.38 142.657 1169.09 142.496 1169.44C142.245 1169.99 138.76 1168.63 138.53 1168.57" stroke="#D8E123" stroke-width="22" stroke-linecap="round" stroke-linejoin="round"/>
<path d="M263.053 790.964C237.796 786.192 212.003 787.318 186.413 786.85C178.165 786.699 169.947 786.328 161.724 785.674C158.614 785.426 151.097 785.923 148.277 783.616C143.595 779.785 167.178 765.398 168.558 764.659C187.279 754.631 208.179 748.686 226.423 737.838C227.325 737.302 229.922 736.631 229.032 736.075C227.228 734.947 219.967 735.377 218.377 735.266C198.142 733.855 177.861 734.154 157.609 733.025C147.646 732.47 137.687 731.825 127.776 730.637C127.171 730.565 112.514 729.648 115.652 726.963C126.283 717.866 142.984 715.516 155.809 711.202C155.93 711.161 160.71 709.825 160.475 708.446C160.159 706.589 152.474 705.439 151.988 705.323C136.417 701.627 120.255 701.42 104.703 697.865C102.557 697.374 102.625 696.773 104.556 695.808C110.75 692.711 117.541 690.716 124.029 688.349C127.504 687.082 149.92 681.379 145.191 674.866C142.018 670.495 133.423 668.238 128.364 667.04C126.883 666.689 126.59 666.649 128.291 665.901C132.368 664.107 136.549 662.628 140.856 661.492C143.115 660.897 146.635 660.629 148.461 658.921C151.836 655.763 136.884 649.073 136.741 649.001C127.963 644.592 118.801 641.257 109.259 638.934C107.39 638.479 101.058 637.186 98.4575 637.097C92.5108 636.893 100.232 637.515 97.7227 638.199" stroke="#D8E123" stroke-width="22" stroke-linecap="round" stroke-linejoin="round"/>
<path d="M75.2377 505.273C64.3104 491.439 54.9235 477.092 45.5884 462.177C44.9881 461.218 39.0644 450.34 36.8075 452.22C31.8364 456.363 30.0572 467.146 28.6512 472.942C25.959 484.039 25.386 497.672 19.3927 507.661C16.1646 513.041 13.413 504.644 12.0447 502.187C6.40319 492.058 -0.158917 483.676 -8.97061 476.102C-11.2258 474.163 -13.8374 470.981 -16.0982 474.044C-21.0382 480.737 -25.9317 487.43 -31.3821 493.737C-35.4094 498.397 -41.4315 504.652 -48.1723 504.869C-53.3754 505.037 -55.9757 498.384 -57.3941 494.472C-59.2101 489.462 -61.4204 472.895 -69.8122 478.49C-77.9936 483.944 -84.1131 498.581 -95.6772 494.692C-101.322 492.794 -103.316 485.436 -107.287 481.466" stroke="#D8E123" stroke-width="22" stroke-linecap="round" stroke-linejoin="round"/>
<path d="M70.4365 875.446C65.7066 877.685 34.6014 911.797 51.3392 910.405" stroke="#D8E123" stroke-width="22" stroke-linecap="round" stroke-linejoin="round"/>
<path d="M226.856 453.559C239.92 449.652 252.235 444.63 264.142 437.933C267.376 436.113 272.309 433.983 274.425 430.809" stroke="#D8E123" stroke-width="22" stroke-linecap="round" stroke-linejoin="round"/>
<path d="M1253.89 918.885C1252.81 898.662 1253.89 878.536 1253.89 858.318" stroke="#D8E123" stroke-width="22" stroke-linecap="round" stroke-linejoin="round"/>
<path d="M637.265 303.022C661.69 292.387 686.439 282.934 711.971 275.274C712.787 275.029 729.033 268.435 721.817 274.241C701.662 290.458 677.619 300.493 657.37 316.242C655.379 317.791 652.859 320.382 657.026 320.855C668.691 322.181 681.346 320.038 692.899 318.583C703.362 317.265 713.693 315.405 724.089 313.763C730.385 312.769 712.513 319.134 706.532 321.337C695.086 325.554 687.085 328.442 675.548 333.042C665.004 337.246 651.201 341.336 641.878 348.328C634.892 353.567 674.737 355.96 677.338 356.039C683.891 356.239 690.729 356.216 697.305 356.039C699.204 355.988 708.908 354.323 710.938 355.902C711.935 356.677 708.751 357.191 707.564 357.623C703.654 359.045 699.811 360.295 696.479 362.925C673.126 381.35 720.354 388.224 731.043 389.227C739.704 390.039 737.316 389.139 748.808 389.777" stroke="#FF3C3C" stroke-width="22" stroke-linecap="round" stroke-linejoin="round"/>
<path d="M1844.98 314.557C1841.47 316.606 1810.6 333.154 1825.55 327.47C1861.67 313.747 1899.55 303.86 1937.2 295.36C1942.3 294.206 1954.28 287.421 1952.62 292.389C1951.14 296.823 1935.71 304.911 1932.28 307.472C1909.24 324.716 1885.81 340.737 1869.43 364.836C1861.95 375.854 1888.04 369.472 1894.34 368.835C1908.91 367.363 1924.27 363.361 1938.91 363.693C1945.14 363.835 1932.06 372.92 1930.8 373.978C1905.41 395.274 1984.93 386.382 1982.79 390.661" stroke="#D8E123" stroke-width="22" stroke-linecap="round" stroke-linejoin="round"/>
<circle cx="1698.94" cy="137.946" r="28.5" fill="#D8E123"/>
<circle cx="572.937" cy="805.946" r="28.5" fill="#D8E123"/>
<circle cx="1783.94" cy="808.946" r="28.5" fill="#D8E123"/>
<circle cx="811.937" cy="318.946" r="28.5" fill="#D8E123"/>
<circle cx="486.937" cy="136.946" r="25.5" fill="#D8E123"/>
<path d="M1246.63 758.303C1229.42 761.496 1208.36 762.752 1192.9 772.029C1186.4 775.929 1180.22 778.171 1172.72 779.42" stroke="#27E123" stroke-width="22" stroke-linecap="round" stroke-linejoin="round"/>
<path d="M1428.24 329.622C1430.93 338.785 1450.52 382.9 1439.74 393.678C1437.88 395.538 1423.49 373.998 1421.79 371.974C1410.1 358.062 1397.81 344.633 1385.77 331.03C1379.42 323.852 1378.42 330.175 1375.92 337.6C1370.53 353.575 1367 369.407 1367 386.287C1367 391.361 1370.91 405.96 1368.64 401.421C1364.9 393.932 1359.01 387.194 1353.04 381.477C1341.04 369.991 1328.47 358.789 1316.2 347.572C1309.85 341.765 1308.72 343.213 1308.81 351.913C1308.88 357.943 1315.9 407.153 1313.97 406.466C1304.91 403.23 1295.67 400.426 1286.64 397.08C1277.31 393.624 1265.77 386.639 1255.55 386.639C1249.24 386.639 1255.08 401.11 1255.08 399.309" stroke="#FF3C3C" stroke-width="22" stroke-linecap="round" stroke-linejoin="round"/>
<path d="M982.788 456.486C977.97 462.374 969.885 470.324 962.352 472.835" stroke="#4176FF" stroke-width="22" stroke-linecap="round" stroke-linejoin="round"/>
<path d="M1814.53 466.704C1843.02 466.704 1873.59 463.667 1901.95 466.818C1905.39 467.2 1881.97 484.534 1878.79 486.459C1869.56 492.053 1859.93 496.862 1850.41 501.9C1831.29 512.008 1872.88 508.594 1875.95 508.711C1915.73 510.225 1955.49 511.862 1995.27 513.253C2001.03 513.454 2007.01 512.52 2012.53 514.161C2018.1 515.815 2001.25 516.989 1995.5 517.794C1960.8 522.653 1932.84 530.761 1902.75 547.313C1893.87 552.195 1888.39 556.393 1877.65 558.666C1872.11 559.841 1862.59 559.7 1871.75 562.753" stroke="#4176FF" stroke-width="22" stroke-linecap="round" stroke-linejoin="round"/>
<path d="M1591.78 403.353C1603.36 411.773 1609.23 405.455 1611.76 391.545C1613.98 379.318 1605.65 378.829 1596.32 378.829C1584.16 378.829 1552.59 372.677 1546.37 385.868C1539.33 400.789 1539.58 429.714 1552.72 441.5C1570.66 457.591 1613.96 469.672 1635.15 454.215C1656.69 438.499 1659.72 404.841 1656.27 380.646C1652.87 356.889 1632.9 329.054 1606.76 326.15C1594.45 324.782 1583.47 328.746 1572.02 332.508C1563.71 335.24 1569.61 327.111 1571.34 323.652" stroke="#4176FF" stroke-width="22" stroke-linecap="round" stroke-linejoin="round"/>
<path d="M387.898 407.057C400.292 409.993 437.459 423.881 428.812 398.515C422.62 380.353 408.071 363.635 387.785 362.884C369.272 362.198 342.985 371.099 330.798 385.027C305.349 414.112 341.809 431.883 366.542 439.654C396.008 448.911 436.847 459.385 464.443 439.878C495.436 417.969 488.9 376.973 464.105 352.768C433.777 323.161 391.323 329.165 352.379 327.703C344.574 327.409 326.259 329.773 321.132 322.083" stroke="#4176FF" stroke-width="22" stroke-linecap="round" stroke-linejoin="round"/>
<path d="M628.659 477.87C653.078 471.305 679.249 465.837 704.642 465.168C715.765 464.876 688.963 484.381 687.107 485.738C671.246 497.337 654.563 508.192 637.876 518.559C633.552 521.245 621.132 526.503 625.962 528.113C641.761 533.379 666.158 529.452 682.611 530.023C691.031 530.316 703.925 528.831 712.173 532.496C713.666 533.16 697.415 541.236 696.324 541.713C691.108 543.993 661.959 551.287 673.395 558.91C680.626 563.731 700.548 568.715 690.479 577.007C677.237 587.913 709.637 598.661 715.208 601.51C728.009 608.057 720.789 607.972 725.773 615.448" stroke="#4176FF" stroke-width="22" stroke-linecap="round" stroke-linejoin="round"/>
<path d="M1081.86 235.084C1100.2 237.221 1118.52 239.485 1136.93 240.929C1146.33 241.665 1157.48 240.943 1166.5 244.188C1171.15 245.864 1151.96 256.157 1150.65 256.89C1131.2 267.732 1109.56 273.796 1089.61 283.529C1071.12 292.552 1105.06 289.669 1109.28 289.598C1129.67 289.259 1150.05 288.633 1170.43 288.137C1171.38 288.114 1188.71 287.687 1192.91 287.687C1194.19 287.687 1195.88 287.178 1196.73 288.137C1199.35 291.077 1189.34 290.936 1185.49 291.734C1168.54 295.246 1151.74 299.685 1135.14 304.548C1130.84 305.807 1083.95 318.441 1095.91 325.229C1116.91 337.149 1191.17 335.601 1167.17 338.268C1160.04 339.06 1132.75 336.518 1128.84 344.337C1127.67 346.675 1136.26 348.79 1136.26 352.43C1136.26 359.431 1124.98 362.831 1122.77 369.065C1119.05 379.548 1152.41 383.443 1157.17 384.802C1173.93 389.592 1165.01 388.77 1152.9 390.084C1148.87 390.521 1114.35 392.915 1116.37 401.999C1117.17 405.608 1136.87 410.841 1140.53 413.126" stroke="#4176FF" stroke-width="22" stroke-linecap="round" stroke-linejoin="round"/>
<path d="M-81.4872 229.016C-51.624 236.821 -20.251 240.823 9.10762 250.259C18.0357 253.129 7.97622 257.151 3.93719 259.364C-21.2507 273.165 -48.8806 281.197 -75.8672 290.611C-87.7316 294.75 -99.6497 298.863 -111.273 303.65C-112.145 304.008 -118.768 305.512 -114.533 306.01C-93.3018 308.508 -72.0618 307.621 -50.6895 308.37C-45.63 308.548 -37.1771 308.191 -31.9186 309.944C-31.5734 310.059 -46.5783 313.069 -46.7555 313.091C-59.7203 314.75 -72.7365 316.027 -85.7585 317.138C-89.5831 317.464 -104.204 316.387 -108.014 319.61C-108.119 319.7 -89.4776 325.159 -89.1305 325.231C-71.9402 328.747 -53.4069 329.159 -36.7518 334.897C-18.5708 341.161 -75.139 337.665 -94.1885 340.292C-109.096 342.348 -64.7215 346.716 -50.4647 351.532C-30.2821 358.351 -54.333 364.125 -63.6155 367.606C-70.8005 370.3 -104.691 378.889 -83.2856 388.962C-74.998 392.862 -65.8169 395.342 -56.9839 397.616C-56.7722 397.671 -35.982 401.633 -39.899 403.461C-44.0517 405.399 -78.5399 414.377 -75.1928 416.05C-67.3936 419.95 -53.8567 416.558 -47.5423 423.244C-45.9573 424.922 -53.1623 424.982 -53.1623 427.29" stroke="#4176FF" stroke-width="22" stroke-linecap="round" stroke-linejoin="round"/>
<path d="M64.9287 384.48C69.029 367.325 72.8684 350.082 77.2001 332.984C77.3479 332.4 78.4827 323.476 81.1444 327.944C87.8089 339.131 92.7628 351.749 98.4558 363.443C105.686 378.294 113.819 393.943 123.656 407.269C127.307 412.216 127.519 393.8 127.819 392.368C131.059 376.933 134.724 360.765 139.433 345.693C141.89 337.833 139.734 362.404 142.282 370.236C143.574 374.209 148.757 385.384 154.115 385.575C159.286 385.76 164.72 372.842 166.606 369.579C171.501 361.106 174.513 351.792 178.877 343.064C179.244 342.329 182.084 352.664 182.602 354.02C184.532 359.076 190.204 381.461 198.599 380.316C204.548 379.505 211.581 365.883 214.376 361.69C220.227 352.914 222.613 337.238 229.715 330.135C232.241 327.609 227.518 336.945 226.757 340.434C225.54 346.01 224.579 351.609 225.552 357.307C228.335 373.608 233.279 367.484 244.397 360.813" stroke="#7FCFD9" stroke-width="22" stroke-linecap="round" stroke-linejoin="round"/>
<path d="M1742.09 259.689C1719.46 259.385 1697.01 259.117 1674.46 261.35C1666.77 262.112 1646.06 262.256 1652.03 267.166C1657.83 271.948 1670.59 273.315 1677.12 274.976C1699.88 280.769 1722.72 285.538 1745.91 289.267C1754.47 290.644 1779.52 292.561 1771.25 295.166C1755.34 300.175 1738.18 302.365 1721.82 305.302C1706.65 308.025 1686.66 308.672 1672.63 315.688C1666.74 318.635 1682.06 323.99 1682.6 324.162C1694.58 327.985 1707.1 330.278 1719.32 333.135C1725.27 334.524 1737.92 335.572 1743.09 340.114C1744.04 340.951 1713.39 352.632 1714.17 359.556C1715.56 371.804 1730.06 378.098 1739.43 382.321C1757.17 390.315 1775.7 397.096 1794.27 402.926C1801.61 405.232 1794.69 403.639 1797.42 407.745" stroke="#864DCF" stroke-width="22" stroke-linecap="round" stroke-linejoin="round"/>
<path d="M1028.73 337.456C1019.12 323.657 1008.58 311.135 996.989 298.905C991.587 293.206 970.913 266.668 960.183 266.668C957.341 266.668 960.857 272.418 962.094 274.976C968.055 287.304 976.466 298.593 984.361 309.706C1000.93 333.033 1015.95 355.82 1026.24 382.654C1026.24 382.663 1032.15 399.587 1030.97 398.606C1024.55 393.255 1018.66 386.915 1012.61 381.158C997.39 366.691 982.455 352.679 964.753 341.278C957.161 336.388 956.943 337.486 956.943 345.764C956.943 357.473 957.43 369.291 956.943 380.992C956.787 384.742 953.451 376.58 953.287 376.339C946.501 366.372 936.601 358.064 927.697 350.085C925.035 347.699 897.655 327.649 899.199 333.052C904.662 352.173 923.728 365.037 931.187 383.152C932.143 385.475 910.088 376.087 909.003 375.675C903.338 373.524 869.699 359.36 865.052 366.12C859.65 373.977 868.258 391.262 870.867 398.938C873.135 405.606 879.285 417.011 874.606 424.03C872.43 427.294 869.496 429.668 869.372 434C869.299 436.551 871.372 437.819 868.707 439.151" stroke="#864DCF" stroke-width="22" stroke-linecap="round" stroke-linejoin="round"/>
<path d="M531.046 252.688C505.858 254.977 480.464 254.984 455.318 257.699C443.665 258.957 456.565 260.785 460.793 261.69C479.342 265.658 498.525 265.548 517.125 269.207C519.791 269.731 509.205 274.217 508.68 274.404C497.016 278.553 483.608 280.696 473.136 287.582C466.968 291.637 489.117 292.698 490.398 292.779C499.11 293.331 507.891 293.422 516.568 294.449C518.849 294.72 522.763 294.815 519.167 297.234C512.743 301.555 505.571 304.751 498.75 308.37C497.651 308.953 489.964 311.774 493.46 313.938C511.288 324.974 534.593 327.706 554.061 334.866C556.501 335.763 577.602 342.119 572.854 347.998C567.556 354.558 557.889 355.082 550.396 356.721C548.279 357.184 532.39 361.17 540.094 366.141C542.443 367.656 563.432 371.187 563.295 371.802C562.496 375.401 546.266 378.689 542.925 380.061C539.304 381.549 534.905 383.584 536.985 388.043C539.108 392.591 542.262 397.343 546.08 400.525" stroke="#864DCF" stroke-width="22" stroke-linecap="round" stroke-linejoin="round"/>
<circle cx="517.937" cy="516.946" r="32.5" fill="#864DCF"/>
<circle cx="1058.44" cy="519.446" r="29" fill="#864DCF"/>
<circle cx="1382.44" cy="511.446" r="27" fill="#864DCF"/>
<circle cx="1731.44" cy="508.446" r="22" fill="#864DCF"/>
<circle cx="174.937" cy="508.946" r="24.5" fill="#864DCF"/>
<path d="M1281.43 500.243C1277.46 495.537 1248.57 456.507 1245.12 473.748C1243.79 480.406 1245.18 502.243 1245.12 500.781C1244.48 486.059 1225.78 511.985 1223.6 514.364C1211.14 527.956 1216.42 501.106 1211.23 492.442C1205.08 482.203 1199.18 511.143 1193.07 510.464C1184.32 509.492 1185.06 471.841 1171.96 491.635C1164.47 502.94 1157.26 514.939 1147.61 524.586C1138.79 533.406 1135.2 521.227 1132.68 513.692C1127.15 497.077 1129.55 499.017 1116.81 507.505" stroke="#27E123" stroke-width="22" stroke-linecap="round" stroke-linejoin="round"/>
<path d="M1479.94 437.301C1466.09 439.794 1454.18 445.08 1441.21 449.405" stroke="#27E123" stroke-width="22" stroke-linecap="round" stroke-linejoin="round"/>
<path d="M75.2377 505.273C64.3104 491.439 54.9235 477.092 45.5884 462.177C44.9881 461.218 39.0644 450.34 36.8075 452.22C31.8364 456.363 30.0572 467.146 28.6512 472.942C25.959 484.039 25.386 497.672 19.3927 507.661C16.1646 513.041 13.413 504.644 12.0447 502.187C6.40319 492.058 -0.158917 483.676 -8.97061 476.102C-11.2258 474.163 -13.8374 470.981 -16.0982 474.044C-21.0382 480.737 -25.9317 487.43 -31.3821 493.737C-35.4094 498.397 -41.4315 504.652 -48.1723 504.869C-53.3754 505.037 -55.9757 498.384 -57.3941 494.472C-59.2101 489.462 -61.4204 472.895 -69.8122 478.49C-77.9936 483.944 -84.1131 498.581 -95.6772 494.692C-101.322 492.794 -103.316 485.436 -107.287 481.466" stroke="#27E123" stroke-width="22" stroke-linecap="round" stroke-linejoin="round"/>
<path d="M226.856 453.559C239.92 449.652 252.235 444.63 264.142 437.933C267.376 436.113 272.309 433.983 274.425 430.809" stroke="#27E123" stroke-width="22" stroke-linecap="round" stroke-linejoin="round"/>
<path d="M637.265 303.022C661.69 292.387 686.439 282.934 711.971 275.274C712.787 275.029 729.033 268.435 721.817 274.241C701.662 290.458 677.619 300.493 657.37 316.242C655.379 317.791 652.859 320.382 657.026 320.855C668.691 322.181 681.346 320.038 692.899 318.583C703.362 317.265 713.693 315.405 724.089 313.763C730.385 312.769 712.513 319.134 706.532 321.337C695.086 325.554 687.085 328.442 675.548 333.042C665.004 337.246 651.201 341.336 641.878 348.328C634.892 353.567 674.737 355.96 677.338 356.039C683.891 356.239 690.729 356.216 697.305 356.039C699.204 355.988 708.908 354.323 710.938 355.902C711.935 356.677 708.751 357.191 707.564 357.623C703.654 359.045 699.811 360.295 696.479 362.925C673.126 381.35 720.354 388.224 731.043 389.227C739.704 390.039 737.316 389.139 748.808 389.777" stroke="#7FCFD9" stroke-width="22" stroke-linecap="round" stroke-linejoin="round"/>
<path d="M1844.98 314.557C1841.47 316.606 1810.6 333.154 1825.55 327.47C1861.67 313.747 1899.55 303.86 1937.2 295.36C1942.3 294.206 1954.28 287.421 1952.62 292.389C1951.14 296.823 1935.71 304.911 1932.28 307.472C1909.24 324.716 1885.81 340.737 1869.43 364.836C1861.95 375.854 1888.04 369.472 1894.34 368.835C1908.91 367.363 1924.27 363.361 1938.91 363.693C1945.14 363.835 1932.06 372.92 1930.8 373.978C1905.41 395.274 1984.93 386.382 1982.79 390.661" stroke="#27E123" stroke-width="22" stroke-linecap="round" stroke-linejoin="round"/>
<path d="M1428.24 329.622C1430.93 338.785 1450.52 382.9 1439.74 393.678C1437.88 395.538 1423.49 373.998 1421.79 371.974C1410.1 358.062 1397.81 344.633 1385.77 331.03C1379.42 323.852 1378.42 330.175 1375.92 337.6C1370.53 353.575 1367 369.407 1367 386.287C1367 391.361 1370.91 405.96 1368.64 401.421C1364.9 393.932 1359.01 387.194 1353.04 381.477C1341.04 369.991 1328.47 358.789 1316.2 347.572C1309.85 341.765 1308.72 343.213 1308.81 351.913C1308.88 357.943 1315.9 407.153 1313.97 406.466C1304.91 403.23 1295.67 400.426 1286.64 397.08C1277.31 393.624 1265.77 386.639 1255.55 386.639C1249.24 386.639 1255.08 401.11 1255.08 399.309" stroke="#7FCFD9" stroke-width="22" stroke-linecap="round" stroke-linejoin="round"/>
<path d="M888.782 515.75C888.782 549.879 884.907 583.654 884.695 617.703C884.668 621.92 883.546 656.311 886.738 654.715" stroke="#D34998" stroke-width="22" stroke-linecap="round" stroke-linejoin="round"/>
<path d="M1689.87 640.41C1706.44 657.931 1720.46 677.76 1737.9 694.451C1740.86 697.287 1750.34 707.848 1753.22 707.848" stroke="#D34998" stroke-width="22" stroke-linecap="round" stroke-linejoin="round"/>
<path d="M1777.75 685.369C1782.2 689.965 1808.63 713.524 1812.49 705.805" stroke="#D34998" stroke-width="22" stroke-linecap="round" stroke-linejoin="round"/>
<path d="M492.324 648.584C506.809 663.508 528.347 680.791 534.786 701.717C535.753 704.863 535.188 704.86 537.283 701.717" stroke="#D34998" stroke-width="22" stroke-linecap="round" stroke-linejoin="round"/>
<path d="M572.024 689.456C585.549 702.594 601.688 712.989 614.94 726.241" stroke="#D34998" stroke-width="22" stroke-linecap="round" stroke-linejoin="round"/>
<path d="M1201.23 635.68C1202.94 618.767 1199.52 598.322 1180.88 592.294C1163.94 586.811 1147.16 597.491 1133.9 607.693C1116.02 621.444 1083.31 657.818 1098.04 683.338C1115.02 712.734 1192.56 700.665 1197.97 666.029C1199.9 653.648 1187.12 641.099 1179.65 632.758C1173.38 625.76 1163.97 609.379 1154.69 609.379" stroke="#D34998" stroke-width="22" stroke-linecap="round" stroke-linejoin="round"/>
<path d="M628.659 477.87C653.078 471.305 679.249 465.837 704.642 465.168C715.765 464.876 688.963 484.381 687.107 485.738C671.246 497.337 654.563 508.192 637.876 518.559C633.552 521.245 621.132 526.503 625.962 528.113C641.761 533.379 666.158 529.452 682.611 530.023C691.031 530.316 703.925 528.831 712.173 532.496C713.666 533.16 697.415 541.236 696.324 541.713C691.108 543.993 661.959 551.287 673.395 558.91C680.626 563.731 700.548 568.715 690.479 577.007C677.237 587.913 709.637 598.661 715.208 601.51C728.009 608.057 720.789 607.972 725.773 615.448" stroke="#D34998" stroke-width="22" stroke-linecap="round" stroke-linejoin="round"/>
<path d="M1847.78 751.305C1867.22 776.733 1887.44 801.626 1908.92 825.371C1928.83 847.386 1949.02 871.261 1972.03 890.125C1980.64 897.189 1991.89 899.765 1976.63 904.478C1942.32 915.073 1906.5 920.833 1871.66 929.459C1858.75 932.657 1845.91 936.164 1832.99 939.32C1828.57 940.4 1815.2 942.122 1819.73 942.607C1842.94 945.094 1867.51 942.346 1890.84 942.716C1896.02 942.799 1936.02 946.393 1935.21 946.989C1929.63 951.102 1920.5 952.738 1914.18 954.44C1897.55 958.916 1880.74 962.703 1864.1 967.149C1852.45 970.265 1839.59 972.586 1829.59 979.859C1825.86 982.571 1847.82 990.713 1848.88 991.035C1851.78 991.922 1877.16 997.07 1874.08 1002.65C1868.22 1013.24 1852.62 1015.39 1844.93 1024.12C1839.45 1030.35 1867.16 1033.47 1870.79 1034.09C1881.41 1035.93 1885.3 1035.29 1875.39 1042.09C1863.84 1050.02 1871.52 1058.02 1881.31 1062.91" stroke="#7FCFD9" stroke-width="22" stroke-linecap="round" stroke-linejoin="round"/>
<path d="M1607.17 642.835C1564.37 647.186 1520.86 650.338 1478.76 659.708C1468.79 661.928 1457.8 664.994 1449.62 671.541C1442.38 677.334 1491.5 675.565 1494.87 675.486C1532.95 674.586 1571.49 675.413 1609.58 676.472C1611.69 676.53 1617.88 676.979 1615.83 677.458C1612.81 678.163 1598.67 679.348 1597.86 679.43C1581.06 681.126 1565.21 684.256 1549.1 689.291C1526.51 696.352 1568.15 696.067 1572.33 696.084C1586.39 696.142 1602.23 694.035 1616.16 696.522C1627.76 698.593 1593.13 701.756 1581.43 703.096C1560.21 705.525 1538.61 707.394 1517.88 712.738C1513.51 713.864 1502.74 719.446 1507.03 720.846C1526.03 727.04 1548.83 726.692 1568.5 727.31C1591.47 728.032 1617.34 723.99 1640.04 728.077C1654.97 730.764 1607.49 730.2 1596.22 740.348C1587.37 748.312 1652.11 758.27 1658.56 759.084C1661.3 759.431 1680.91 759.345 1667.98 763.576C1652.21 768.739 1636.4 773.55 1620.32 777.71C1608.08 780.878 1592.84 782.432 1581.54 788.667C1573.26 793.232 1601.7 796.084 1602.79 796.227C1613.46 797.616 1624.12 797.645 1634.78 798.637C1639.73 799.097 1625.46 802.078 1620.76 803.677C1594.66 812.55 1624.32 820.464 1637.96 823.07C1656.47 826.605 1675.24 828.113 1693.95 830.083C1696.13 830.312 1689.65 830.551 1691.98 828.22" stroke="#7FCFD9" stroke-width="22" stroke-linecap="round" stroke-linejoin="round"/>
<path d="M841.968 733.555C836.265 753.514 825.08 774.919 822.355 795.35C821.464 802.037 841.242 788.155 841.31 788.119C874.981 770.66 908.641 753.175 942.878 736.842C948.344 734.234 954.473 726.672 959.641 729.83C964.373 732.722 952.914 738.709 948.904 742.54C925.407 764.98 897.112 785.028 877.686 811.347C870.55 821.015 905.299 797.884 907.488 796.556C925.607 785.555 945.934 772.666 966.872 767.74C975.056 765.814 962.398 780.293 962.271 780.449C951.731 793.384 934.787 804.974 926.552 819.455C923.817 824.266 956.658 813.957 959.641 812.662C976.029 805.545 1018.9 773.469 1006.1 785.928C998.593 793.229 964.097 832.696 991.196 832.164C1005.87 831.877 1022.07 829.33 1035.9 824.276C1041.31 822.297 1035.27 822.304 1033.27 822.304" stroke="#7FCFD9" stroke-width="22" stroke-linecap="round" stroke-linejoin="round"/>
<path d="M408.089 646.779C370.841 655.013 333.41 662.023 296.003 669.459C279.94 672.653 263.389 675.308 247.685 680.087C237.109 683.306 252.627 682.357 253.82 682.388C267.542 682.749 398.008 687.432 398.008 699.042C398.008 702.692 380.471 705.278 379.163 705.506C344.702 711.537 306.597 710.811 273.98 724.79C267.122 727.729 274.568 729.528 277.925 730.487C295.907 735.625 314.55 736.561 333.146 737.061C360.813 737.805 388.521 737.5 416.196 737.5C419.457 737.5 435.38 735.242 438.767 737.5C441.214 739.131 433.048 738.883 430.221 739.691C418.378 743.075 406.617 745.924 394.502 748.237C389.1 749.268 372.964 749.615 368.316 754.263C363.882 758.698 380.021 758.974 386.175 760.18C403.059 763.487 419.961 765.033 437.123 765.987C437.29 765.996 464.786 766.492 460.68 768.616C454.484 771.821 422.286 780.688 432.412 792.501C440.018 801.376 476.325 798.544 465.72 803.458C452.723 809.481 433.05 807.286 421.675 816.387C419.209 818.359 447.931 823.548 450.819 823.837C460.72 824.827 468.077 826.577 477.115 830.192" stroke="#7FCFD9" stroke-width="22" stroke-linecap="round" stroke-linejoin="round"/>
<path d="M644.75 719.75C670.568 739.296 705.85 759.214 723.637 787.242C725.494 790.169 729.317 800.609 731.526 800.609" stroke="#7FCFD9" stroke-width="22" stroke-linecap="round" stroke-linejoin="round"/>
<circle cx="1287.44" cy="584.446" r="33" fill="#7FCFD9"/>
<circle cx="81.4365" cy="591.446" r="31" fill="#7FCFD9"/>
<circle cx="824.437" cy="593.446" r="31" fill="#7FCFD9"/>
<path d="M1795.96 586.705C1809.27 596.782 1824.41 606.477 1835.57 619.064C1837.72 621.494 1838.54 623.451 1838.54 626.544" stroke="#374892" stroke-width="22" stroke-linecap="round" stroke-linejoin="round"/>
<path d="M1449.77 608.685C1449.77 604.385 1447.03 584.29 1452.37 582.202C1461.76 578.526 1478.84 586.987 1487.17 590.063C1487.73 590.271 1506.2 597.57 1505.79 595.939C1503.61 587.207 1493.21 577.712 1487.93 570.83C1479.68 560.075 1470.01 550.178 1462.44 538.929C1458.87 533.628 1465.35 540.412 1466.56 541.371C1477.28 549.893 1487.16 558.563 1500.29 563.198C1515.22 568.466 1506.38 540.289 1505.41 533.357C1504.97 530.25 1500.88 520.46 1506.4 525.191C1515.74 533.199 1529.33 535.991 1541.28 537.555C1546.89 538.289 1556.35 539.252 1561.81 536.944C1562.71 536.565 1562.21 535.174 1563.11 534.578C1565.8 532.785 1570.25 533.184 1573.26 533.128C1575.81 533.081 1585.38 534.871 1585.77 530.839C1586.01 528.394 1584.89 526.013 1587.15 524.886" stroke="#374892" stroke-width="22" stroke-linecap="round" stroke-linejoin="round"/>
<path d="M1037.7 670.956C1021.01 653.643 1004.61 640.972 982.367 632.073" stroke="#374892" stroke-width="22" stroke-linecap="round" stroke-linejoin="round"/>
<path d="M35.7039 759.192C6.81827 762.753 -22.1133 765.066 -51.0361 768.165" stroke="#374892" stroke-width="22" stroke-linecap="round" stroke-linejoin="round"/>
<path d="M589.046 584.216C607.21 602.616 623.91 623.333 647.371 635.064" stroke="#374892" stroke-width="22" stroke-linecap="round" stroke-linejoin="round"/>
<path d="M390.142 545.332C370.47 538.246 351.83 530.351 334.559 518.413C332.884 517.256 325.731 509.958 325.835 516.087C326.199 537.549 339.603 551.265 353.585 565.605C356.779 568.881 350.636 565.568 349.68 565.19C337.643 560.431 326.102 554.932 314.868 548.49C303.66 542.062 292.782 534.441 280.886 529.297C274.922 526.718 279.739 533.472 280.969 536.027C282.689 539.598 302.779 566.591 300.245 567.765C293.671 570.811 282.891 566.759 276.649 565.273C261.97 561.778 247.866 556.669 233.445 552.312C214.354 546.543 243.944 569.314 248.234 572.086C249.612 572.976 267.479 584.216 260.032 584.216" stroke="#374892" stroke-width="22" stroke-linecap="round" stroke-linejoin="round"/>
<circle cx="754.437" cy="736.446" r="29" fill="#374892"/>
<ellipse cx="1099.44" cy="797.946" rx="26" ry="23.5" fill="#374892"/>
<path d="M1469.26 786.932C1454.72 787.091 1440.26 787.09 1425.74 786.01C1415.03 785.212 1403.75 784.337 1393.45 780.97C1390.89 780.135 1387.82 778.724 1386.17 776.462C1383.93 773.386 1389.72 771.827 1391.53 771.103C1410.26 763.583 1430.67 761.114 1449.88 755.096C1455.76 753.253 1461.65 751.028 1467.13 748.175C1471.28 746.013 1468.87 745.718 1465.57 745.264C1448.43 742.917 1431.29 740.48 1414.24 737.527C1401.77 735.365 1387.32 732.712 1376.55 725.531C1374.75 724.329 1372.79 723.172 1371.09 721.839C1369.08 720.278 1376.96 720.142 1377.05 720.136C1389.22 719.3 1401.82 721.29 1413.89 719.781C1414.8 719.668 1412.55 718.446 1411.69 718.148C1407.22 716.606 1402.62 715.493 1397.95 714.741C1377.62 711.462 1357.06 709.884 1337.23 703.951C1334.11 703.019 1333.67 702.386 1336.52 700.899C1341.23 698.434 1346.52 697.012 1351.56 695.433C1361.11 692.446 1370.74 689.693 1380.1 686.17C1385.82 684.018 1392.65 681.582 1397.63 677.9C1401.67 674.915 1391.61 671.444 1390.43 670.943C1380.29 666.66 1369.68 663.895 1358.88 661.857C1355.59 661.238 1353.09 661.52 1352.03 658.095C1350.79 654.106 1351.5 651.027 1352.35 647.021" stroke="#D8E123" stroke-width="22" stroke-linecap="round" stroke-linejoin="round"/>
<path d="M263.053 790.964C237.796 786.192 212.003 787.318 186.413 786.85C178.165 786.699 169.947 786.328 161.724 785.674C158.614 785.426 151.097 785.923 148.277 783.616C143.595 779.785 167.178 765.398 168.558 764.659C187.279 754.631 208.179 748.686 226.423 737.838C227.325 737.302 229.922 736.631 229.032 736.075C227.228 734.947 219.967 735.377 218.377 735.266C198.142 733.855 177.861 734.154 157.609 733.025C147.646 732.47 137.687 731.825 127.776 730.637C127.171 730.565 112.514 729.648 115.652 726.963C126.283 717.866 142.984 715.516 155.809 711.202C155.93 711.161 160.71 709.825 160.475 708.446C160.159 706.589 152.474 705.439 151.988 705.323C136.417 701.627 120.255 701.42 104.703 697.865C102.557 697.374 102.625 696.773 104.556 695.808C110.75 692.711 117.541 690.716 124.029 688.349C127.504 687.082 149.92 681.379 145.191 674.866C142.018 670.495 133.423 668.238 128.364 667.04C126.883 666.689 126.59 666.649 128.291 665.901C132.368 664.107 136.549 662.628 140.856 661.492C143.115 660.897 146.635 660.629 148.461 658.921C151.836 655.763 136.884 649.073 136.741 649.001C127.963 644.592 118.801 641.257 109.259 638.934C107.39 638.479 101.058 637.186 98.4575 637.097C92.5108 636.893 100.232 637.515 97.7227 638.199" stroke="#D8E123" stroke-width="22" stroke-linecap="round" stroke-linejoin="round"/>
<circle cx="572.937" cy="805.946" r="28.5" fill="#D8E123"/>
<circle cx="1783.94" cy="808.946" r="28.5" fill="#D8E123"/>
<path d="M1246.63 758.303C1229.42 761.496 1208.36 762.752 1192.9 772.029C1186.4 775.929 1180.22 778.171 1172.72 779.42" stroke="#374892" stroke-width="22" stroke-linecap="round" stroke-linejoin="round"/>
</g>
</g>
<defs>
<clipPath id="clip0_1_5655">
<rect width="1820" height="1024" fill="white"/>
</clipPath>
<clipPath id="clip1_1_5655">
<rect width="1986" height="1635" fill="white" transform="translate(-83 -306)"/>
</clipPath>
</defs>
</svg>
